# xmcd CD database file
#
# Track frame offsets:
#	182
#	21950
#	44267
#	74605
#	98420
#	123262
#	146317
#	170912
#	202787
#
# Disc length: 2919 seconds
#
# Revision: 0
# Processed by: cddbd v1.5.1PL2 Copyright (c) Steve Scherf et al.
# Submitted via: CDex 1.51
#
DISCID=760b6509
DTITLE=Magno Bissoli - Bissamblazz
DYEAR=1994
DGENRE=Jazz
TTITLE0=Dessa Vez Um Samba
TTITLE1=Waves At All
TTITLE2=Afrika
TTITLE3=Renata
TTITLE4=Escorregando Na Neve
TTITLE5=Vomimbora
TTITLE6=For My Friends
TTITLE7=Felicidade
TTITLE8=Z'babziba
EXTD=YEAR: 1994
EXTT0=
EXTT1=
EXTT2=
EXTT3=
EXTT4=
EXTT5=
EXTT6=
EXTT7=
EXTT8=
PLAYORDER=
